<?xml version="1.0" encoding="UTF-8"?>
<svg width="300" height="80" viewBox="0 0 300 80" version="1.1" xmlns="http://www.w3.org/2000/svg">
  <g fill="#000000">
    <path d="M39.7,20.4c-5.5,0-10,4.5-10,10s4.5,10,10,10s10-4.5,10-10S45.2,20.4,39.7,20.4z M39.7,35.4c-2.8,0-5-2.2-5-5s2.2-5,5-5 s5,2.2,5,5S42.5,35.4,39.7,35.4z"/>
    <path d="M89.7,20.4c-5.5,0-10,4.5-10,10s4.5,10,10,10s10-4.5,10-10S95.2,20.4,89.7,20.4z M89.7,35.4c-2.8,0-5-2.2-5-5s2.2-5,5-5 s5,2.2,5,5S92.5,35.4,89.7,35.4z"/>
    <path d="M64.7,25.4c-2.8,0-5,2.2-5,5s2.2,5,5,5s5-2.2,5-5S67.5,25.4,64.7,25.4z"/>
    <path d="M154.7,20.4h-10v20h5v-7.5h5c4.1,0,7.5-3.4,7.5-7.5v-5H154.7z M154.7,25.4h2.5v2.5c0,1.4-1.1,2.5-2.5,2.5h-5v-5H154.7z"/>
    <path d="M179.7,20.4c-5.5,0-10,4.5-10,10s4.5,10,10,10s10-4.5,10-10S185.2,20.4,179.7,20.4z M179.7,35.4c-2.8,0-5-2.2-5-5s2.2-5,5-5 s5,2.2,5,5S182.5,35.4,179.7,35.4z"/>
    <path d="M214.7,20.4h-15v20h15v-5h-10v-5h7.5v-5h-7.5v-5h10V20.4z"/>
    <path d="M239.7,20.4h-15v5h5v15h5v-15h5V20.4z"/>
    <path d="M264.7,20.4h-15v20h5v-7.5h10v-5h-10v-2.5h10V20.4z"/>
  </g>
</svg> 